<svg viewBox="0 0 116 20" fill="none" xmlns="http://www.w3.org/2000/svg">
<path d="M33.6971 4.79799V15.6045H31.8209V7.1344H31.7909L28.4364 15.6045H27.1931L23.756 7.1344H23.7335V15.6045H22V4.79799H24.6891L27.7935 12.8078H27.8385L31.1155 4.79799H33.6971ZM35.2655 5.62098C35.2655 5.3183 35.3756 5.06815 35.5932 4.86303C35.8108 4.6604 36.071 4.55784 36.3737 4.55784C36.6964 4.55784 36.9615 4.66291 37.1717 4.87053C37.3818 5.07816 37.4894 5.32831 37.4894 5.62098C37.4894 5.91616 37.3818 6.16632 37.1642 6.36644C36.949 6.56656 36.6839 6.66912 36.3737 6.66912C36.0635 6.66912 35.8008 6.56656 35.5857 6.36393C35.3731 6.15881 35.2655 5.91116 35.2655 5.62098ZM37.2767 7.85734V15.6045H35.4531V7.85734H37.2767ZM42.8101 14.2787C43.0802 14.2787 43.3804 14.2161 43.7056 14.0911C44.0333 13.966 44.3335 13.8009 44.6112 13.5933V15.2893C44.321 15.4544 43.9883 15.582 43.6206 15.667C43.2503 15.7521 42.8451 15.7947 42.4023 15.7947C41.2616 15.7947 40.3361 15.4345 39.6206 14.714C38.9077 13.9936 38.55 13.0729 38.55 11.9523C38.55 10.7065 38.9152 9.68094 39.6432 8.87295C40.3711 8.06747 41.4042 7.66472 42.74 7.66472C43.0827 7.66472 43.4279 7.70975 43.7757 7.7973C44.1259 7.88485 44.401 7.98742 44.6087 8.10249V9.85104C44.326 9.64592 44.0408 9.48582 43.7456 9.37326C43.453 9.26069 43.1503 9.20315 42.8451 9.20315C42.1272 9.20315 41.5468 9.43579 41.104 9.90358C40.6613 10.3713 40.4411 11.0017 40.4411 11.7947C40.4411 12.5776 40.6538 13.188 41.079 13.6258C41.5043 14.061 42.0796 14.2787 42.8101 14.2787ZM49.8018 7.72976C49.9469 7.72976 50.077 7.73977 50.1945 7.75978C50.3121 7.77979 50.4072 7.80481 50.4897 7.83482V9.68094C50.3947 9.6109 50.2546 9.54336 50.072 9.48082C49.8894 9.41828 49.6667 9.38576 49.4041 9.38576C48.9563 9.38576 48.5786 9.57338 48.2709 9.9511C47.9632 10.3288 47.8081 10.9092 47.8081 11.6922V15.6045H45.9845V7.85734H47.8081V9.07808H47.8381C48.0032 8.65532 48.2559 8.32512 48.5911 8.08748C48.9263 7.84983 49.329 7.72976 49.8018 7.72976ZM50.5873 11.8447C50.5873 10.5639 50.95 9.54836 51.6729 8.80041C52.3959 8.05246 53.4015 7.67723 54.6873 7.67723C55.898 7.67723 56.8436 8.03745 57.524 8.75788C58.2044 9.47832 58.5446 10.4514 58.5446 11.6771C58.5446 12.933 58.1819 13.9335 57.4589 14.6764C56.736 15.4194 55.7504 15.7921 54.5046 15.7921C53.3039 15.7921 52.3508 15.4394 51.6454 14.7339C50.94 14.0285 50.5873 13.0654 50.5873 11.8447ZM52.4859 11.7847C52.4859 12.5927 52.6685 13.2105 53.0363 13.6383C53.404 14.066 53.9268 14.2787 54.6122 14.2787C55.2751 14.2787 55.7804 14.066 56.1281 13.6383C56.4758 13.2105 56.6484 12.5777 56.6484 11.7396C56.6484 10.9066 56.4683 10.2764 56.1106 9.85104C55.7504 9.42579 55.2476 9.21316 54.5997 9.21316C53.9318 9.21316 53.414 9.43579 53.0438 9.88106C52.671 10.3263 52.4859 10.9618 52.4859 11.7847ZM61.2587 9.89357C61.2587 10.1537 61.3413 10.3588 61.5064 10.5089C61.6715 10.6565 62.0392 10.8442 62.6071 11.0693C63.335 11.3619 63.8478 11.6897 64.1405 12.0524C64.4357 12.4176 64.5807 12.8578 64.5807 13.3756C64.5807 14.1036 64.3006 14.689 63.7402 15.1318C63.1799 15.5745 62.4219 15.7947 61.4689 15.7947C61.1462 15.7947 60.7909 15.7547 60.4032 15.677C60.013 15.5995 59.6828 15.4994 59.4126 15.3793V13.5858C59.7453 13.8159 60.1005 14.001 60.4833 14.1361C60.866 14.2712 61.2112 14.3387 61.5239 14.3387C61.9366 14.3387 62.2393 14.2812 62.4369 14.1662C62.6321 14.0511 62.7296 13.8559 62.7296 13.5858C62.7296 13.3356 62.6271 13.123 62.4244 12.9479C62.2218 12.7753 61.8341 12.5751 61.2687 12.3475C60.5958 12.0673 60.118 11.7497 59.8379 11.3969C59.5577 11.0442 59.4151 10.5989 59.4151 10.0562C59.4151 9.35825 59.6928 8.7829 60.2481 8.33513C60.8035 7.88485 61.5239 7.65972 62.4069 7.65972C62.6771 7.65972 62.9823 7.68974 63.32 7.74977C63.6577 7.80981 63.9379 7.88736 64.163 7.98241V9.71596C63.9228 9.55587 63.6402 9.41828 63.32 9.30071C62.9973 9.18564 62.6796 9.12811 62.3619 9.12811C62.0142 9.12811 61.744 9.19565 61.5514 9.33073C61.3538 9.47081 61.2587 9.65593 61.2587 9.89357ZM65.3637 11.8447C65.3637 10.5639 65.7264 9.54836 66.4494 8.80041C67.1723 8.05246 68.1779 7.67723 69.4637 7.67723C70.6744 7.67723 71.62 8.03745 72.3004 8.75788C72.9808 9.47832 73.321 10.4514 73.321 11.6771C73.321 12.933 72.9583 13.9335 72.2354 14.6764C71.5124 15.4194 70.5268 15.7921 69.2811 15.7921C68.0804 15.7921 67.1273 15.4394 66.4219 14.7339C65.7164 14.0285 65.3637 13.0654 65.3637 11.8447ZM67.2649 11.7847C67.2649 12.5927 67.4475 13.2105 67.8152 13.6383C68.1829 14.066 68.7057 14.2787 69.3912 14.2787C70.0541 14.2787 70.5594 14.066 70.9071 13.6383C71.2548 13.2105 71.4274 12.5777 71.4274 11.7396C71.4274 10.9066 71.2473 10.2764 70.8896 9.85104C70.5293 9.42579 70.0265 9.21316 69.3786 9.21316C68.7107 9.21316 68.1929 9.43579 67.8227 9.88106C67.4475 10.3263 67.2649 10.9618 67.2649 11.7847ZM79.3722 9.35074H76.6555V15.6045H74.8094V9.35074H73.5136V7.85984H74.8094V6.78169C74.8094 5.9687 75.0746 5.30079 75.6049 4.78048C76.1352 4.26016 76.8131 4 77.6436 4C77.8638 4 78.0614 4.01251 78.2315 4.03502C78.4016 4.05754 78.5542 4.09256 78.6843 4.13759V5.71354C78.6242 5.67852 78.5192 5.63599 78.3666 5.58596C78.2165 5.53593 78.0414 5.51092 77.8463 5.51092C77.4635 5.51092 77.1709 5.63099 76.9632 5.86863C76.7581 6.10628 76.6555 6.45899 76.6555 6.92678V7.86234H79.3722V6.12129L81.2033 5.56345V7.86234H83.0494V9.35324H81.2033V12.978C81.2033 13.4558 81.2908 13.7909 81.4635 13.9886C81.6361 14.1837 81.9087 14.2837 82.2815 14.2837C82.3865 14.2837 82.5141 14.2587 82.6617 14.2086C82.8093 14.1586 82.9394 14.0986 83.0494 14.0286V15.537C82.9344 15.602 82.7417 15.662 82.4741 15.717C82.2064 15.7722 81.9412 15.7997 81.6786 15.7997C80.9106 15.7997 80.3328 15.5945 79.95 15.1867C79.5648 14.7765 79.3747 14.1611 79.3747 13.3356V9.35074H79.3722Z" fill="#77787B"/>
<path d="M8.56018 0.950195H0V9.51038H8.56018V0.950195Z" fill="#F26522"/>
<path d="M18.0084 0.950195H9.44818V9.51038H18.0084V0.950195Z" fill="#8DC63F"/>
<path d="M8.56018 10.3984H0V18.9586H8.56018V10.3984Z" fill="#00AEEF"/>
<path d="M18.0084 10.3984H9.44818V18.9586H18.0084V10.3984Z" fill="#FFC20E"/>
<path d="M87.2099 15.7069V5.02246H90.6C91.6332 5.02246 92.4503 5.24847 93.0513 5.70048C93.6573 6.1525 93.9603 6.74111 93.9603 7.46632C93.9603 8.07232 93.7889 8.59884 93.4462 9.04589C93.1035 9.49294 92.6291 9.81084 92.0231 9.99959V10.0294C92.7582 10.1138 93.3444 10.387 93.7815 10.849C94.2236 11.306 94.4446 11.902 94.4446 12.6372C94.4446 13.5511 94.0845 14.2913 93.3642 14.8575C92.644 15.4238 91.735 15.7069 90.6372 15.7069H87.2099ZM88.9757 6.44556V9.48549H90.1231C90.7391 9.48549 91.2209 9.34144 91.5686 9.05334C91.9213 8.76028 92.0976 8.348 92.0976 7.81651C92.0976 6.90254 91.4866 6.44556 90.2647 6.44556H88.9757ZM88.9757 10.9086V14.2913H90.4882C91.1489 14.2913 91.658 14.1398 92.0156 13.8368C92.3783 13.5288 92.5596 13.1066 92.5596 12.5701C92.5596 11.4624 91.7921 10.9086 90.2573 10.9086H88.9757Z" fill="#77787B"/>
<path d="M96.6117 6.47531C96.3286 6.47531 96.0852 6.38342 95.8815 6.19963C95.6828 6.01585 95.5835 5.78239 95.5835 5.49926C95.5835 5.21613 95.6828 4.98019 95.8815 4.79143C96.0852 4.60268 96.3286 4.5083 96.6117 4.5083C96.9048 4.5083 97.1531 4.60268 97.3568 4.79143C97.5604 4.98019 97.6623 5.21613 97.6623 5.49926C97.6623 5.76749 97.5604 5.99846 97.3568 6.19218C97.1531 6.38094 96.9048 6.47531 96.6117 6.47531ZM97.4685 15.7069H95.7399V8.07724H97.4685V15.7069Z" fill="#77787B"/>
<path d="M106.028 15.7069H104.3V11.4078C104.3 9.98218 103.795 9.26938 102.787 9.26938C102.26 9.26938 101.826 9.46807 101.483 9.86545C101.14 10.2579 100.969 10.7546 100.969 11.3556V15.7069H99.2333V8.07726H100.969V9.34389H100.999C101.57 8.38025 102.395 7.89844 103.472 7.89844C104.302 7.89844 104.935 8.16915 105.372 8.71057C105.81 9.24703 106.028 10.0244 106.028 11.0427V15.7069Z" fill="#77787B"/>
<path d="M114.588 15.0959C114.588 17.8974 113.18 19.2982 110.363 19.2982C109.37 19.2982 108.503 19.1318 107.763 18.799V17.2194C108.598 17.6963 109.39 17.9347 110.14 17.9347C111.953 17.9347 112.859 17.0431 112.859 15.2599V14.4254H112.83C112.258 15.3989 111.399 15.8857 110.252 15.8857C109.323 15.8857 108.573 15.548 108.001 14.8724C107.435 14.1919 107.152 13.2804 107.152 12.138C107.152 10.8415 107.458 9.81081 108.069 9.04586C108.679 8.28091 109.519 7.89844 110.587 7.89844C111.595 7.89844 112.343 8.31071 112.83 9.13527H112.859V8.07726H114.588V15.0959ZM112.874 12.2125V11.2215C112.874 10.6851 112.695 10.228 112.338 9.85055C111.985 9.46807 111.543 9.27683 111.012 9.27683C110.356 9.27683 109.842 9.52023 109.469 10.007C109.102 10.4889 108.918 11.1644 108.918 12.0337C108.918 12.7837 109.094 13.3847 109.447 13.8368C109.805 14.2838 110.276 14.5073 110.863 14.5073C111.459 14.5073 111.943 14.2937 112.315 13.8666C112.688 13.4344 112.874 12.8831 112.874 12.2125Z" fill="#77787B"/>
</svg>
